# Blender 4.2.0
# www.blender.org
mtllib waterwheel_large.mtl
o waterwheel_large.003
v 0.375000 -0.018514 0.625000
v 0.375000 -0.018514 0.375000
v 0.375000 1.018514 0.625000
v 0.375000 1.018514 0.375000
v 0.625000 -0.018514 0.375000
v 0.625000 -0.018514 0.625000
v 0.625000 1.018514 0.375000
v 0.625000 1.018514 0.625000
v 0.062500 1.000000 0.937500
v 0.062500 1.000000 0.062500
v 0.062500 0.000000 0.937500
v 0.062500 0.000000 0.062500
v 0.937500 1.000000 0.937500
v 0.937500 1.000000 0.062500
v 0.937500 0.000000 0.937500
v 0.937500 0.000000 0.062500
v 1.069544 0.149999 1.875000
v 1.069543 -0.062500 -0.875000
v 1.069544 1.062500 -0.875000
v 1.866138 0.934680 -0.065873
v 1.866138 0.065320 -0.065873
v -0.875000 0.150000 -0.069544
v 2.625000 1.062500 -0.380204
v 1.875000 1.062500 -0.069544
v 1.875000 -0.062500 1.069543
v 1.866138 0.934680 1.065873
v 1.866138 0.065320 1.065873
v 2.625000 1.062499 1.380204
v 1.065873 0.065320 1.866137
v 1.069544 -0.062500 1.875000
v -1.625000 0.850000 -0.380204
v 1.065873 0.934680 1.866137
v -0.065873 0.934680 1.866137
v -0.065873 0.065320 1.866137
v -0.069544 0.849999 1.875000
v -0.380204 1.062499 2.625000
v -0.866138 0.065320 1.065873
v 1.069544 0.849999 1.875000
v -0.866138 0.934680 1.065873
v 1.875000 0.850000 1.069544
v -0.866138 0.065320 -0.065872
v -0.866138 0.934680 -0.065873
v -1.625000 1.062500 -0.380204
v 1.380204 0.850000 -1.625000
v 1.380204 0.149999 2.625000
v 1.875000 0.150000 1.069544
v 2.625000 0.150000 -0.380204
v 1.380204 0.150000 -1.625000
v 1.380204 -0.062501 2.625000
v 1.875000 -0.062500 -0.069544
v -0.065872 0.065320 -0.866138
v -0.065873 0.934680 -0.866138
v 1.065873 0.934680 -0.866138
v 1.065873 0.065320 -0.866138
v 1.380203 -0.062500 -1.625000
v 1.069544 0.850000 -0.875000
v 1.069544 0.150000 -0.875000
v 1.380204 1.062500 -1.625000
v 2.625000 -0.062500 -0.380204
v 1.875000 0.850000 -0.069544
v 1.875000 0.150000 -0.069544
v 2.625000 0.850000 -0.380204
v 2.624999 0.150000 1.380204
v 2.625000 -0.062500 1.380203
v 2.625000 0.849999 1.380203
v 1.875000 1.062500 1.069544
v 1.380204 0.849999 2.625000
v 1.380204 1.062499 2.625000
v 1.069544 1.062499 1.875000
v -0.380204 0.149999 2.624999
v -0.380204 -0.062501 2.624999
v -0.069544 -0.062500 1.875000
v -0.069544 0.150000 1.875000
v -0.380204 0.849999 2.625000
v -0.069544 1.062499 1.875000
v -1.625000 0.150000 1.380204
v -0.875000 0.150000 1.069544
v -1.625000 -0.062500 1.380203
v -0.875000 -0.062500 1.069544
v -0.875000 0.850000 1.069544
v -1.625000 0.849999 1.380204
v -1.625000 1.062500 1.380204
v -0.875000 1.062500 1.069544
v -1.625000 0.150000 -0.380203
v -1.625000 -0.062500 -0.380204
v -0.875000 -0.062500 -0.069544
v -0.875000 0.850000 -0.069544
v -0.875000 1.062500 -0.069544
v -0.380204 0.150000 -1.624999
v -0.380204 -0.062500 -1.625000
v -0.069544 -0.062500 -0.875000
v -0.069544 0.850000 -0.875000
v -0.069544 0.150000 -0.875000
v -0.380204 0.850000 -1.625000
v -0.380204 1.062500 -1.625000
v -0.069544 1.062500 -0.875000
v -0.254739 0.968750 -1.825708
v 0.104027 0.968750 -0.959570
v -0.254739 0.031250 -1.825707
v 0.104027 0.031250 -0.959570
v -0.610842 0.968750 -1.678206
v -0.252077 0.968750 -0.812069
v -0.610843 0.031250 -1.678206
v -0.252077 0.031250 -0.812069
v 1.610842 0.968750 -1.678205
v 1.252077 0.968750 -0.812067
v 1.610842 0.031250 -1.678204
v 1.252077 0.031250 -0.812067
v 1.254740 0.968750 -1.825708
v 0.895974 0.968750 -0.959572
v 1.254739 0.031250 -1.825709
v 0.895974 0.031250 -0.959572
v 2.825708 0.968750 -0.254740
v 1.959570 0.968750 0.104027
v 2.825707 0.031250 -0.254739
v 1.959570 0.031250 0.104027
v 2.678206 0.968750 -0.610842
v 1.812069 0.968750 -0.252078
v 2.678206 0.031250 -0.610844
v 1.812069 0.031250 -0.252078
v 2.678205 0.968750 1.610842
v 1.812067 0.968750 1.252077
v 2.678205 0.031250 1.610842
v 1.812067 0.031250 1.252077
v 2.825708 0.968750 1.254740
v 1.959572 0.968750 0.895974
v 2.825709 0.031250 1.254739
v 1.959572 0.031250 0.895974
v 1.254740 0.968750 2.825708
v 0.895973 0.968750 1.959570
v 1.254739 0.031250 2.825707
v 0.895973 0.031250 1.959570
v 1.610842 0.968750 2.678206
v 1.252078 0.968750 1.812069
v 1.610844 0.031250 2.678205
v 1.252078 0.031250 1.812069
v -0.610842 0.968750 2.678205
v -0.252077 0.968750 1.812067
v -0.610842 0.031250 2.678205
v -0.252077 0.031250 1.812067
v -0.254740 0.968750 2.825708
v 0.104026 0.968750 1.959572
v -0.254739 0.031250 2.825709
v 0.104026 0.031250 1.959572
v -1.825708 0.968750 1.254740
v -0.959570 0.968750 0.895973
v -1.825707 0.031250 1.254739
v -0.959570 0.031250 0.895973
v -1.678206 0.968750 1.610842
v -0.812069 0.968750 1.252078
v -1.678206 0.031250 1.610844
v -0.812069 0.031250 1.252078
v -1.678206 0.968750 -0.610842
v -0.812067 0.968750 -0.252077
v -1.678205 0.031250 -0.610842
v -0.812067 0.031250 -0.252077
v -1.825708 0.968750 -0.254740
v -0.959572 0.968750 0.104026
v -1.825709 0.031250 -0.254739
v -0.959572 0.031250 0.104026
v -0.254740 0.968750 -1.825708
v 0.104027 0.968750 -0.959570
v -0.254740 0.031250 -1.825708
v 0.104027 0.031250 -0.959570
v -0.610843 0.968750 -1.678206
v -0.252078 0.968750 -0.812069
v -0.610844 0.031250 -1.678206
v -0.252078 0.031250 -0.812069
v -0.322443 0.743446 1.622101
v 1.622101 0.743446 -0.322443
v -0.322443 0.256554 1.622101
v 1.622101 0.256554 -0.322443
v -0.622101 0.256554 1.322443
v 1.322443 0.256554 -0.622101
v -0.622101 0.743446 1.322443
v 1.322443 0.743446 -0.622101
v 0.649829 0.256554 0.649829
v 0.350171 0.743446 0.350171
v 0.649829 0.743446 0.649829
v 0.350171 0.256554 0.350171
v 1.622101 0.743446 1.322443
v -0.322443 0.743446 -0.622101
v 1.622101 0.256554 1.322443
v -0.322443 0.256554 -0.622101
v 1.322443 0.256554 1.622101
v -0.622101 0.256554 -0.322443
v 1.322443 0.743446 1.622101
v -0.622101 0.743446 -0.322443
v 0.649829 0.256554 0.350171
v 0.350171 0.743446 0.649829
v 0.649829 0.743446 0.350171
v 0.350171 0.256554 0.649829
v 2.020232 0.934680 1.129701
v 2.020232 0.065320 1.129701
v -0.129700 0.065320 -1.020232
v -0.129701 0.934680 -1.020232
v 1.129701 0.934680 2.020232
v -1.020232 0.934680 1.129701
v -1.020232 0.934680 -0.129701
v 1.129701 0.065320 -1.020232
v 1.129701 0.934680 -1.020232
v 2.020232 0.934680 -0.129701
v 2.020232 0.065320 -0.129701
v 1.129701 0.065320 2.020232
v -0.129701 0.065320 2.020232
v -0.129701 0.934680 2.020232
v -1.020232 0.065320 1.129701
v -1.020232 0.065320 -0.129700
vn -1.0000 -0.0000 -0.0000
vn -0.0000 -1.0000 -0.0000
vn 1.0000 -0.0000 -0.0000
vn -0.0000 1.0000 -0.0000
vn -0.0000 -0.0000 -1.0000
vn -0.0000 -0.0000 1.0000
vn -0.7071 -0.0000 -0.7071
vn -0.7071 -0.0000 0.7071
vn 0.7071 -0.0000 -0.7071
vn 0.7071 -0.0000 0.7071
vn -0.9239 -0.0000 0.3827
vn 0.9239 -0.0000 -0.3827
vn -0.3827 -0.0000 -0.9239
vn -0.9239 -0.0000 -0.3827
vn 0.9239 -0.0000 0.3827
vn 0.3827 -0.0000 -0.9239
vn 0.3827 -0.0000 0.9239
vn -0.3827 -0.0000 0.9239
vt 0.937500 0.062500
vt 0.937500 0.937500
vt 0.062500 0.937500
vt 0.062500 0.062500
vt 0.625000 0.625000
vt 0.375000 0.625000
vt 0.375000 0.375000
vt 0.625000 0.375000
vt 1.000000 0.000000
vt 1.000000 1.000041
vt 0.000359 1.000041
vt 0.000359 0.000000
vt 1.000000 1.000041
vt 0.000359 1.000041
vt 0.000359 0.000000
vt 0.169337 0.375000
vt 0.830663 0.375000
vt 1.000000 1.000000
vt 0.000000 1.000000
vt 1.000000 0.000000
vt 1.000000 1.000041
vt 0.000359 1.000041
vt 1.000000 0.875000
vt 0.000000 0.875000
vt 0.312500 0.250000
vt 0.312500 0.375000
vt 0.687500 0.375000
vt 0.687500 0.250000
vt 1.000000 0.000000
vt 1.000000 1.000041
vt 0.000359 1.000041
vt 1.000000 0.000000
vt 1.000000 0.000000
vt 0.000359 0.000000
vt 1.000000 1.000041
vt 0.625000 0.000000
vt 0.625000 1.000000
vt 0.375000 1.000000
vt 0.375000 0.000000
vt 0.062500 1.000000
vt 1.000000 0.062500
vt 0.062500 0.750000
vt 1.000000 0.750000
vt 1.000000 0.625000
vt 0.062500 0.625000
vt 0.125000 1.000000
vt 0.125000 0.062500
vt 0.000000 0.062500
vt 1.000000 0.437500
vt 0.062500 0.437500
vt 0.062500 0.312500
vt 1.000000 0.312500
vt 1.000000 0.000202
vt 0.000202 0.000202
vt 0.000202 0.314555
vt 1.000000 0.314554
vt 1.000000 0.500000
vt 0.000202 0.500000
vt 0.000202 0.814353
vt 1.000000 0.814352
vt 0.000202 0.500000
vt 1.000000 0.500000
vt 1.000000 0.314554
vt 0.000202 0.314555
vt 1.000000 0.999798
vt 0.000202 0.999798
vt 0.000202 0.999798
vt 1.000000 0.000202
vt 1.000000 1.000041
vt -0.000028 1.000041
vt -0.000028 0.000000
vt 1.000000 0.000000
vt -0.000028 1.000041
vt -0.000028 0.000000
vt 1.000000 0.000000
vt 1.000000 1.000041
vt -0.000028 1.000041
vt -0.000028 1.000041
vt -0.000028 0.000000
vt 1.000000 0.000000
vt -0.000028 1.000041
vt -0.000028 0.000000
vt -0.000028 1.000041
vt -0.000028 0.000000
s 0
usemtl axis
f 3/36/6 1/37/6 6/38/6 8/39/6
f 8/36/3 6/37/3 5/38/3 7/39/3
f 7/36/5 5/37/5 2/38/5 4/39/5
f 4/36/1 2/37/1 1/38/1 3/39/1
usemtl axis_top
f 1/5/2 2/6/2 5/7/2 6/8/2
f 4/5/4 3/6/4 8/7/4 7/8/4
usemtl waterwheel_stripped_log
f 14/1/4 10/2/4 9/3/4 13/4/4
f 12/1/2 16/2/2 15/3/2 11/4/2
usemtl waterwheel_log
f 10/1/1 12/2/1 11/3/1 9/4/1
f 16/1/3 14/2/3 13/3/3 15/4/3
f 12/1/5 10/2/5 14/3/5 16/4/5
f 15/1/6 13/2/6 9/3/6 11/4/6
f 27/9/1 26/10/1 20/11/1 21/12/1
f 52/9/6 51/13/6 54/14/6 53/15/6
f 26/20/7 27/21/7 29/22/7 32/15/7
f 34/29/5 33/30/5 32/22/5 29/15/5
f 54/21/8 21/31/8 20/15/8 53/32/8
f 37/10/3 41/31/3 42/12/3 39/33/3
f 37/22/9 39/34/9 33/20/9 34/35/9
f 42/31/10 41/12/10 51/9/10 52/21/10
f 194/69/3 203/70/3 202/71/3 193/72/3
f 196/69/5 201/73/5 200/74/5 195/20/5
f 193/71/10 197/75/10 204/76/10 194/77/10
f 205/69/6 204/78/6 197/71/6 206/29/6
f 200/73/9 201/79/9 202/80/9 203/76/9
f 207/75/1 198/76/1 199/81/1 208/82/1
f 207/76/8 205/83/8 206/71/8 198/80/8
f 199/76/7 196/83/7 195/84/7 208/72/7
usemtl waterwheel_plank
f 24/16/4 66/17/4 28/18/4 23/19/4
f 43/23/1 31/18/1 81/19/1 82/24/1
f 24/25/1 60/26/1 40/27/1 66/28/1
f 78/19/2 85/18/2 86/17/2 79/16/2
f 31/19/7 43/24/7 95/23/7 94/18/7
f 60/16/2 62/19/2 65/18/2 40/17/2
f 38/27/7 69/28/7 66/25/7 40/26/7
f 19/17/4 58/18/4 95/19/4 96/16/4
f 35/17/2 74/18/2 81/19/2 80/16/2
f 49/23/6 45/18/6 70/19/6 71/24/6
f 69/16/4 68/19/4 28/18/4 66/17/4
f 57/17/4 61/16/4 47/19/4 48/18/4
f 73/17/4 77/16/4 76/19/4 70/18/4
f 83/16/4 82/19/4 36/18/4 75/17/4
f 92/16/2 94/19/2 44/18/2 56/17/2
f 61/16/4 46/17/4 63/18/4 47/19/4
f 56/27/6 19/28/6 96/25/6 92/26/6
f 22/17/4 93/16/4 89/19/4 84/18/4
f 80/16/2 81/19/2 31/18/2 87/17/2
f 17/26/7 46/27/7 25/28/7 30/25/7
f 59/24/9 55/23/9 48/18/9 47/19/9
f 18/25/6 57/26/6 93/27/6 91/28/6
f 44/18/5 94/19/5 95/24/5 58/23/5
f 65/19/10 28/24/10 68/23/10 67/18/10
f 56/17/2 44/18/2 62/19/2 60/16/2
f 23/24/3 28/23/3 65/18/3 62/19/3
f 55/18/2 59/19/2 50/16/2 18/17/2
f 22/17/4 84/18/4 76/19/4 77/16/4
f 17/16/4 45/19/4 63/18/4 46/17/4
f 67/19/2 74/18/2 35/17/2 38/16/2
f 64/23/10 63/18/10 45/19/10 49/24/10
f 57/17/4 48/18/4 89/19/4 93/16/4
f 96/16/4 95/19/4 43/18/4 88/17/4
f 58/24/9 23/23/9 62/18/9 44/19/9
f 88/17/4 43/18/4 82/19/4 83/16/4
f 55/24/5 90/23/5 89/18/5 48/19/5
f 17/16/4 73/17/4 70/18/4 45/19/4
f 46/26/1 61/27/1 50/28/1 25/25/1
f 19/25/8 56/26/8 60/27/8 24/28/8
f 78/23/1 76/18/1 84/19/1 85/24/1
f 64/18/2 25/17/2 50/16/2 59/19/2
f 59/23/3 47/18/3 63/19/3 64/24/3
f 75/28/5 69/25/5 38/26/5 35/27/5
f 78/19/2 79/16/2 72/17/2 71/18/2
f 87/26/10 92/27/10 96/28/10 88/25/10
f 61/26/8 57/27/8 18/28/8 50/25/8
f 69/16/4 75/17/4 36/18/4 68/19/4
f 91/25/10 93/26/10 22/27/10 86/28/10
f 68/24/6 36/23/6 74/18/6 67/19/6
f 83/28/9 75/25/9 35/26/9 80/27/9
f 17/27/5 30/28/5 72/25/5 73/26/5
f 103/40/11 104/18/11 102/41/11 101/4/11
f 99/42/2 100/43/2 104/44/2 103/45/2
f 86/17/2 85/18/2 90/19/2 91/16/2
f 82/23/8 81/18/8 74/19/8 36/24/8
f 19/17/4 24/16/4 23/19/4 58/18/4
f 31/18/2 94/19/2 92/16/2 87/17/2
f 65/18/2 67/19/2 38/16/2 40/17/2
f 88/28/3 83/25/3 80/26/3 87/27/3
f 98/41/12 100/18/12 99/40/12 97/4/12
f 72/28/9 79/25/9 77/26/9 73/27/9
f 89/19/7 90/24/7 85/23/7 84/18/7
f 55/18/2 18/17/2 91/16/2 90/19/2
f 70/18/8 76/19/8 78/24/8 71/23/8
f 30/16/2 49/19/2 71/18/2 72/17/2
f 99/19/13 103/46/13 101/47/13 97/48/13
f 49/19/2 30/16/2 25/17/2 64/18/2
f 98/49/4 97/50/4 101/51/4 102/52/4
f 86/25/3 22/26/3 77/27/3 79/28/3
f 111/40/14 112/18/14 110/41/14 109/4/14
f 107/42/2 108/43/2 112/44/2 111/45/2
f 106/41/15 108/18/15 107/40/15 105/4/15
f 107/19/16 111/46/16 109/47/16 105/48/16
f 106/49/4 105/50/4 109/51/4 110/52/4
f 119/40/13 120/18/13 118/41/13 117/4/13
f 115/42/2 116/43/2 120/44/2 119/45/2
f 114/41/17 116/18/17 115/40/17 113/4/17
f 115/19/12 119/46/12 117/47/12 113/48/12
f 114/49/4 113/50/4 117/51/4 118/52/4
f 127/40/16 128/18/16 126/41/16 125/4/16
f 123/42/2 124/43/2 128/44/2 127/45/2
f 122/41/18 124/18/18 123/40/18 121/4/18
f 123/19/15 127/46/15 125/47/15 121/48/15
f 122/49/4 121/50/4 125/51/4 126/52/4
f 135/40/12 136/18/12 134/41/12 133/4/12
f 131/42/2 132/43/2 136/44/2 135/45/2
f 130/41/11 132/18/11 131/40/11 129/4/11
f 131/19/17 135/46/17 133/47/17 129/48/17
f 130/49/4 129/50/4 133/51/4 134/52/4
f 143/40/15 144/18/15 142/41/15 141/4/15
f 139/42/2 140/43/2 144/44/2 143/45/2
f 138/41/14 140/18/14 139/40/14 137/4/14
f 139/19/18 143/46/18 141/47/18 137/48/18
f 138/49/4 137/50/4 141/51/4 142/52/4
f 151/40/17 152/18/17 150/41/17 149/4/17
f 147/42/2 148/43/2 152/44/2 151/45/2
f 146/41/13 148/18/13 147/40/13 145/4/13
f 147/19/11 151/46/11 149/47/11 145/48/11
f 146/49/4 145/50/4 149/51/4 150/52/4
f 159/40/18 160/18/18 158/41/18 157/4/18
f 155/42/2 156/43/2 160/44/2 159/45/2
f 154/41/16 156/18/16 155/40/16 153/4/16
f 155/19/14 159/46/14 157/47/14 153/48/14
f 154/49/4 153/50/4 157/51/4 158/52/4
f 167/40/11 168/18/11 166/41/11 165/4/11
f 163/42/2 164/43/2 168/44/2 167/45/2
f 162/41/12 164/18/12 163/40/12 161/4/12
f 163/19/13 167/46/13 165/47/13 161/48/13
f 162/49/4 161/50/4 165/51/4 166/52/4
f 179/53/4 170/54/4 176/55/4 178/56/4
f 180/57/2 174/58/2 172/59/2 177/60/2
f 180/61/7 173/62/7 175/63/7 178/64/7
f 179/65/10 177/60/10 172/59/10 170/66/10
f 169/65/10 171/60/10 177/59/10 179/67/10
f 174/58/7 180/57/7 178/56/7 176/55/7
f 173/62/2 180/61/2 177/59/2 171/60/2
f 169/68/4 179/54/4 178/64/4 175/63/4
f 191/53/4 182/54/4 188/55/4 190/56/4
f 192/57/2 186/58/2 184/59/2 189/60/2
f 192/61/8 185/62/8 187/63/8 190/64/8
f 191/65/9 189/60/9 184/59/9 182/66/9
f 181/65/9 183/60/9 189/59/9 191/67/9
f 186/58/8 192/57/8 190/56/8 188/55/8
f 185/62/2 192/61/2 189/59/2 183/60/2
f 181/68/4 191/54/4 190/64/4 187/63/4
