# Blender 4.2.0
# www.blender.org
mtllib crushing_wheel.mtl
o Cube.004
v 0.146446 0.120000 1.353553
v 0.625000 0.000000 0.375000
v 0.375000 0.000000 0.375000
v 0.625000 0.000000 0.625000
v 0.375000 0.000000 0.625000
v 0.375000 0.495000 0.375000
v 0.625000 0.495000 0.375000
v 0.625000 0.495000 0.625000
v 0.375000 0.495000 0.625000
v 1.423879 0.880000 0.500000
v 0.853554 0.880000 -0.353553
v 0.500000 0.880000 -0.500000
v -0.353554 0.880000 0.853552
v -0.423880 0.880000 0.499999
v -0.353553 0.880000 0.146446
v 0.625000 1.000000 0.375000
v 0.375000 1.000000 0.375000
v 0.625000 1.000000 0.625000
v 0.375000 1.000000 0.625000
v 0.499999 0.880000 1.500000
v 0.853553 0.880000 1.353553
v 1.153281 0.880000 1.153282
v 1.207106 0.880000 1.207107
v 1.353553 0.880000 0.853554
v 1.500000 0.880000 0.500001
v 1.153282 0.880000 -0.153281
v -0.153281 0.880000 1.153281
v -0.207106 0.880000 1.207107
v 0.146447 0.880000 1.353553
v 1.423879 0.120000 0.500000
v -0.207106 0.880000 -0.207107
v 0.146447 0.880000 -0.353554
v 1.477705 0.119000 0.063492
v 1.250000 0.880000 0.500000
v 1.030330 0.880000 1.030330
v -0.250000 0.880000 0.189339
v 1.030330 0.880000 -0.030330
v 0.810660 0.880000 1.250000
v 1.250000 0.880000 0.189340
v 0.189340 0.880000 -0.250000
v 0.500000 0.880000 1.250000
v 1.250000 0.880000 0.810659
v -0.250000 0.880000 0.500000
v 0.500000 0.880000 -0.250000
v -0.030330 0.880000 1.030330
v -0.250000 0.880000 0.810660
v -0.030330 0.880000 -0.030330
v 0.189340 0.880000 1.250000
v 0.810660 0.880000 -0.250000
v -0.062500 0.880000 0.732995
v 0.102253 0.880000 0.897748
v 0.102252 0.880000 0.102252
v 0.267005 0.880000 1.062500
v 0.732995 0.880000 -0.062500
v 0.500000 0.880000 1.062500
v -0.062500 0.880000 0.267005
v 0.897748 0.880000 0.102252
v 1.062500 0.880000 0.500000
v 1.062500 0.880000 0.732995
v -0.062500 0.880000 0.500000
v 0.897748 0.880000 0.897747
v 1.062500 0.880000 0.267004
v 0.500000 0.880000 -0.062500
v 0.732996 0.880000 1.062499
v 0.267004 0.880000 -0.062500
v -0.500000 0.119000 0.117317
v 0.117316 0.119000 1.500000
v 0.936508 0.119000 1.477705
v -0.477705 0.119000 0.936509
v -0.207107 0.119000 1.207106
v 1.500000 0.119000 0.500001
v -0.207106 0.119000 -0.207107
v 1.207106 0.119000 1.207107
v 1.500000 0.119000 0.882684
v 1.207107 0.880000 -0.207107
v 0.882684 0.119000 -0.500000
v 0.063492 0.119000 -0.477705
v -0.500000 0.119000 0.499999
v -0.153281 0.881000 -0.153282
v -0.500000 0.881000 0.499999
v 0.499999 0.881000 1.423879
v 0.117316 0.881000 1.500000
v 1.500000 0.881000 0.882684
v 0.500000 0.881000 -0.423879
v 0.936508 0.881000 1.477705
v 1.353554 0.880000 0.146447
v 0.882684 0.881000 -0.500000
v 0.063492 0.881000 -0.477705
v -0.500000 0.881000 0.117316
v -0.477705 0.881000 0.936509
v 0.853554 0.120000 -0.353553
v 0.500000 0.120000 -0.500000
v -0.353554 0.120000 0.853552
v -0.423880 0.120000 0.499999
v -0.353553 0.120000 0.146446
v 0.499999 0.120000 1.500000
v 0.853553 0.120000 1.353553
v 1.153281 0.120000 1.153282
v 1.353553 0.120000 0.853554
v 1.153282 0.120000 -0.153281
v -0.153281 0.120000 1.153281
v 0.146447 0.120000 -0.353554
v 1.353553 0.120000 0.146447
v 1.250000 0.120000 0.500000
v 1.030330 0.120000 1.030330
v -0.250000 0.120000 0.189339
v 1.030330 0.120000 -0.030330
v 0.810660 0.120000 1.250000
v 1.250000 0.120000 0.189340
v 0.189340 0.120000 -0.250000
v 0.500000 0.120000 1.250000
v 1.250000 0.120000 0.810659
v -0.250000 0.120000 0.500000
v 0.500000 0.120000 -0.250000
v -0.030330 0.120000 1.030330
v -0.250000 0.120000 0.810660
v -0.030330 0.120000 -0.030330
v 0.189340 0.120000 1.250000
v 0.810660 0.120000 -0.250000
v -0.062500 0.120000 0.732995
v 0.102253 0.120000 0.897748
v 0.102252 0.120000 0.102252
v 0.267005 0.120000 1.062500
v 0.732995 0.120000 -0.062500
v 0.500000 0.120000 1.062500
v -0.062500 0.120000 0.267005
v 0.897748 0.120000 0.102252
v 1.062500 0.120000 0.500000
v 1.062500 0.120000 0.732995
v -0.062500 0.120000 0.500000
v 0.897748 0.120000 0.897747
v 1.062500 0.120000 0.267004
v 0.500000 0.120000 -0.062500
v 0.732996 0.120000 1.062499
v 0.267004 0.120000 -0.062500
v -0.153281 0.121000 -0.153282
v 0.499999 0.121000 1.423879
v 0.500000 0.121000 -0.423879
v 0.500000 0.880000 0.500000
v 0.500000 0.120000 0.500000
v 1.153281 0.881000 -0.153281
v 1.477705 0.881000 0.063492
v 1.207107 0.120000 -0.207107
v 1.153281 0.121000 -0.153281
vn 0.3827 -0.0000 -0.9239
vn -0.0000 1.0000 -0.0000
vn 0.3837 -0.0000 0.9235
vn 0.7064 -0.0000 0.7078
vn -0.0000 -1.0000 -0.0000
vn 0.0001 -1.0000 -0.0000
vn -1.0000 -0.0000 -0.0000
vn -0.0000 -0.0000 1.0000
vn 1.0000 -0.0000 -0.0000
vn -0.0000 -0.0000 -1.0000
vn 0.9243 -0.0000 0.3817
vn 1.0000 -0.0000 0.0010
vn -0.9233 -0.0000 0.3840
vn -0.7081 -0.0000 0.7061
vn 0.7071 -0.0000 -0.7071
vn 0.9239 -0.0000 -0.3827
vn 0.9239 -0.0000 0.3827
vn 0.7071 -0.0000 0.7071
vn -0.9244 -0.0000 -0.3814
vn -1.0000 -0.0000 -0.0013
vn 0.3827 -0.0000 0.9239
vn -0.3840 -0.0000 -0.9233
vn -0.7061 -0.0000 -0.7081
vn -0.3827 -0.0000 0.9239
vn -0.7071 -0.0000 0.7071
vn 0.3815 -0.0000 -0.9244
vn 0.0013 -0.0000 -1.0000
vn -0.9239 -0.0000 0.3827
vn 0.9234 -0.0000 -0.3839
vn 0.7080 -0.0000 -0.7062
vn -0.9239 -0.0000 -0.3827
vn -0.7071 -0.0000 -0.7071
vn -0.3827 -0.0000 -0.9239
vn -0.0017 -0.0000 1.0000
vn -0.0016 -0.0000 1.0000
vn -0.3811 -0.0000 0.9245
vt 0.437500 0.000000
vt 0.437500 1.000000
vt 0.000000 1.000000
vt 0.000000 0.000000
vt 0.073223 0.676777
vt 0.000000 0.691342
vt 0.000000 0.500000
vt 0.038061 0.500000
vt 1.000000 0.308658
vt 1.000000 0.500000
vt 0.961940 0.500000
vt 0.926776 0.323223
vt 0.073223 0.323224
vt 0.125000 0.344670
vt 0.125000 0.500000
vt 0.323224 0.926777
vt 0.281745 0.988852
vt 0.146446 0.853553
vt 0.173359 0.826640
vt 0.323223 0.073223
vt 0.344671 0.125000
vt 0.234835 0.234835
vt 0.173359 0.173359
vt 0.146446 0.146447
vt 0.676777 0.926776
vt 0.691342 1.000000
vt 0.500001 1.000000
vt 0.500001 0.961940
vt 0.676776 0.073223
vt 0.655330 0.125000
vt 0.500000 0.125000
vt 0.500000 0.038060
vt 0.499999 0.000000
vt 0.875000 0.344670
vt 0.765165 0.234835
vt 0.826641 0.173359
vt 0.437791 1.000045
vt 0.250095 1.000042
vt 0.249703 0.000042
vt 0.437399 0.000045
vt 0.926777 0.676777
vt 0.875000 0.655330
vt 0.875000 0.500000
vt 0.655331 0.875000
vt 0.765165 0.765165
vt 0.826641 0.826640
vt 0.853554 0.853553
vt 0.344670 0.875000
vt 0.500000 0.875000
vt 0.011148 0.281746
vt 0.125000 0.655330
vt 0.234835 0.765165
vt 0.655330 0.875000
vt 0.500000 0.875000
vt 0.500000 0.781250
vt 0.616497 0.781250
vt 0.323224 0.073223
vt 0.173360 0.173359
vt 0.146447 0.146447
vt 0.281745 0.011147
vt 0.173359 0.826640
vt 0.323223 0.926776
vt 0.146447 0.853553
vt 0.344670 0.875000
vt 0.383502 0.781250
vt 0.616498 0.781250
vt 0.234835 0.765165
vt 0.344670 0.875000
vt 0.344669 0.875000
vt 0.073224 0.676776
vt 0.038060 0.499999
vt 0.125000 0.500000
vt 0.125000 0.655330
vt 0.926777 0.323224
vt 0.961940 0.500000
vt 0.875000 0.500000
vt 0.875000 0.344670
vt 0.676777 0.073224
vt 0.500001 0.038060
vt 0.500001 0.000000
vt 0.691342 0.000000
vt 0.073224 0.323223
vt 0.000000 0.499999
vt 0.000000 0.308658
vt 0.500000 0.961940
vt 0.676777 0.926776
vt 0.500000 1.000000
vt 0.718254 0.011147
vt 0.853553 0.146447
vt 0.826641 0.173359
vt 0.500000 0.500000
vt 0.218750 0.383502
vt 0.301127 0.301126
vt 0.383502 0.218750
vt 0.826641 0.173360
vt 0.655331 0.125000
vt 0.926776 0.676777
vt 0.826641 0.826641
vt 0.765165 0.765165
vt 0.875000 0.655330
vt 0.500000 0.875000
vt 0.655330 0.875000
vt 1.000000 0.691342
vt 1.000000 0.500000
vt 0.308658 0.000000
vt 0.988853 0.718254
vt 0.853554 0.146447
vt 0.500000 0.125000
vt 0.344670 0.125000
vt 0.011148 0.718254
vt 0.234835 0.234835
vt 0.125000 0.344670
vt 0.500000 0.500000
vt 0.781250 0.616498
vt 0.698874 0.698874
vt 0.616498 0.781250
vt 0.308658 1.000000
vt 0.988853 0.281746
vt 0.218750 0.616497
vt 0.218750 0.500000
vt 0.781250 0.616498
vt 0.781250 0.383503
vt 0.781250 0.500000
vt 0.383502 0.781250
vt 0.301126 0.698874
vt 0.500000 0.218750
vt 0.616498 0.218750
vt 0.698874 0.698874
vt 0.616498 0.781250
vt 0.698874 0.301126
vt 0.781250 0.383502
vt 0.781250 0.500000
vt 0.383502 0.218750
vt 0.218750 0.383502
vt 0.301126 0.301127
vt 0.218751 0.616498
vt 0.218750 0.500000
vt 0.500000 0.781250
vt 0.383502 0.781250
vt 0.616498 0.218750
vt 0.500000 0.218750
vt 0.301127 0.698874
vt 0.698874 0.301126
vt 0.375000 0.000000
vt 0.625000 0.000000
vt 0.625000 0.500000
vt 0.375000 0.500000
vt 0.562500 0.437500
vt 0.562500 0.562500
vt 0.437500 0.562500
vt 0.437500 0.437500
vt 0.375000 0.375000
vt 0.375000 0.625000
vt 0.625000 0.625000
vt 0.625000 0.375000
vt 0.718254 0.988853
vt 0.826641 0.826640
vt 0.853553 0.853553
vt 0.437500 0.999928
vt 0.000000 0.000036
vt 0.437500 -0.000036
vt 0.249747 0.000042
vt 0.437791 1.000001
vt 0.250139 0.998686
s 0
usemtl crushing_wheel_insert
f 29/5/2 82/6/2 20/7/2 81/8/2
f 87/9/2 12/10/2 84/11/2 11/12/2
f 21/13/2 38/14/2 41/15/2 81/8/2
f 81/8/2 20/7/2 21/13/2
f 13/16/2 90/17/2 28/18/2 27/19/2
f 24/20/2 42/21/2 35/22/2 22/23/2
f 22/23/2 23/24/2 24/20/2
f 15/25/2 89/26/2 80/27/2 14/28/2
f 86/29/2 39/30/2 34/31/2 10/32/2
f 10/32/2 25/33/2 86/29/2
f 11/12/2 49/34/2 37/35/2 26/36/2
f 32/41/2 40/42/2 44/43/2 84/11/2
f 84/11/2 12/10/2 32/41/2
f 15/25/2 36/44/2 47/45/2 79/46/2
f 79/46/2 31/47/2 15/25/2
f 13/16/2 46/48/2 43/49/2 14/28/2
f 14/28/2 80/27/2 13/16/2
f 21/13/2 85/50/2 23/24/2 22/23/2
f 29/5/2 48/51/2 45/52/2 27/19/2
f 27/19/2 28/18/2 29/5/2
f 38/53/2 35/54/2 61/55/2 64/56/2
f 81/8/2 41/15/2 48/51/2 29/5/2
f 46/53/2 45/54/2 51/55/2 50/56/2
f 10/32/2 34/31/2 42/21/2 24/20/2
f 26/36/2 37/35/2 39/30/2 86/29/2
f 93/57/5 101/58/5 70/59/5 69/60/5
f 79/46/2 47/45/2 40/42/2 32/41/2
f 98/61/5 99/62/5 73/63/5
f 37/54/2 49/64/2 54/65/2 57/55/2
f 39/53/2 37/54/2 57/55/2 62/66/2
f 46/48/2 13/16/2 27/19/2 45/52/2
f 38/14/2 21/13/2 22/23/2 35/22/2
f 36/53/2 43/54/2 60/55/2 56/56/2
f 48/53/2 41/54/2 55/55/2 53/56/2
f 40/53/2 47/54/2 52/55/2 65/56/2
f 42/53/2 34/54/2 58/55/2 59/56/2
f 99/62/5 98/61/5 105/67/5 112/68/5
f 47/54/2 36/69/2 56/65/2 52/55/2
f 43/54/2 46/64/2 50/65/2 60/55/2
f 41/54/2 38/69/2 64/65/2 55/55/2
f 49/34/2 11/12/2 84/11/2 44/43/2
f 36/44/2 15/25/2 14/28/2 43/49/2
f 97/70/5 137/71/5 111/72/5 108/73/5
f 49/53/2 44/54/2 63/55/2 54/66/2
f 102/74/5 138/75/5 114/76/5 110/77/5
f 95/78/5 94/79/5 78/80/5 66/81/5
f 1/82/5 137/71/5 96/83/5 67/84/5
f 30/85/5 103/86/5 71/87/5
f 65/65/2 63/55/2 44/54/2 40/64/2
f 62/65/2 58/55/2 34/54/2 39/64/2
f 142/88/2 75/89/2 141/90/2 86/29/2
f 137/71/5 97/70/5 96/83/5
f 139/91/2 64/92/2 61/93/2 59/94/2
f 95/78/5 136/95/5 117/35/5 106/96/5
f 141/90/2 75/89/2 11/12/2
f 91/97/5 100/98/5 107/99/5 119/100/5
f 59/65/2 61/55/2 35/54/2 42/64/2
f 53/65/2 51/55/2 45/54/2 48/64/2
f 103/86/5 30/85/5 104/101/5 109/102/5
f 76/103/5 91/97/5 138/75/5 92/104/5
f 24/20/2 83/105/2 25/33/2 10/32/2
f 32/41/2 88/106/2 31/47/2 79/46/2
f 138/75/5 102/74/5 92/104/5
f 136/95/5 95/78/5 72/107/5
f 93/57/5 94/79/5 113/108/5 116/109/5
f 94/79/5 93/57/5 78/80/5
f 97/70/5 98/61/5 73/63/5 68/110/5
f 1/82/5 101/58/5 115/111/5 118/112/5
f 101/58/5 1/82/5 70/59/5
f 108/53/5 134/56/5 131/55/5 105/54/5
f 137/71/5 1/82/5 118/112/5 111/72/5
f 116/53/5 120/56/5 121/55/5 115/54/5
f 30/85/5 99/62/5 112/68/5 104/101/5
f 100/98/5 103/86/5 109/102/5 107/99/5
f 136/95/5 102/74/6 110/77/5 117/35/5
f 107/54/5 127/55/5 124/65/5 119/64/5
f 109/53/5 132/66/5 127/55/5 107/54/5
f 116/109/5 115/111/5 101/58/5 93/57/5
f 108/73/5 105/67/5 98/61/5 97/70/5
f 106/53/5 126/56/5 130/55/5 113/54/5
f 118/53/5 123/56/5 125/55/5 111/54/5
f 110/53/5 135/56/5 122/55/5 117/54/5
f 112/53/5 129/56/5 128/55/5 104/54/5
f 117/54/5 122/55/5 126/65/5 106/69/5
f 113/54/5 130/55/5 120/65/5 116/64/5
f 111/54/5 125/55/5 134/65/5 108/69/5
f 119/100/5 114/76/5 138/75/5 91/97/5
f 106/96/5 113/108/5 94/79/5 95/78/5
f 119/53/5 124/66/5 133/55/5 114/54/5
f 135/65/5 110/64/5 114/54/5 133/55/5
f 132/65/5 109/64/5 104/54/5 128/55/5
f 140/113/5 124/114/5 127/115/5 132/116/5
f 129/65/5 112/64/5 105/54/5 131/55/5
f 123/65/5 118/64/5 115/54/5 121/55/5
f 99/62/5 30/85/5 71/87/6 74/117/5
f 102/74/5 136/95/5 72/107/5 77/118/5
f 139/91/2 53/119/2 55/120/2 64/92/2
f 65/121/2 139/91/2 54/122/2 63/123/2
f 139/91/2 50/124/2 51/125/2 53/119/2
f 139/91/2 59/94/2 58/126/2 62/127/2
f 52/128/2 56/129/2 139/91/2 65/121/2
f 54/122/2 139/91/2 62/127/2 57/130/2
f 56/129/2 60/55/2 50/124/2 139/91/2
f 135/131/5 133/132/5 124/114/5 140/113/5
f 120/133/5 140/113/5 123/134/5 121/135/5
f 123/134/5 140/113/5 134/136/5 125/137/5
f 140/113/5 132/116/5 128/138/5 129/139/5
f 126/140/5 140/113/5 120/133/5 130/141/5
f 134/136/5 140/113/5 129/139/5 131/142/5
f 122/143/5 135/131/5 140/113/5 126/140/5
f 33/156/5 103/86/5 144/157/5 143/158/5
f 144/157/5 91/97/5 143/158/5
usemtl m_axis
f 3/144/7 5/145/7 9/146/7 6/147/7
f 5/144/8 4/145/8 8/146/8 9/147/8
f 4/144/9 2/145/9 7/146/9 8/147/9
f 2/144/10 3/145/10 6/146/10 7/147/10
f 17/144/7 6/147/7 9/146/7 19/145/7
f 19/144/8 9/147/8 8/146/8 18/145/8
f 18/144/9 8/147/9 7/146/9 16/145/9
f 16/144/10 7/147/10 6/146/10 17/145/10
usemtl m_axis_top
f 3/148/5 2/149/5 4/150/5 5/151/5
f 17/152/2 19/153/2 18/154/2 16/155/2
usemtl crushing_wheel_plates
f 91/1/1 11/2/1 75/3/1 143/4/1
f 103/37/3 33/38/4 142/39/4 86/40/3
f 91/37/11 76/38/12 87/39/12 11/40/11
f 21/40/13 97/37/13 68/38/14 85/39/14
f 75/159/15 142/3/15 33/160/15 143/161/15
f 103/3/16 86/4/16 25/1/16 71/2/16
f 71/3/9 25/160/9 83/161/9 74/159/9
f 99/3/17 24/4/17 23/1/17 73/2/17
f 23/160/18 85/161/18 68/159/18 73/3/18
f 1/162/19 67/40/20 82/163/20 29/164/19
f 97/3/21 21/4/21 20/1/21 96/2/21
f 96/3/8 20/160/8 82/161/8 67/159/8
f 93/37/22 69/38/23 90/39/23 13/40/22
f 1/1/24 29/2/24 28/3/24 70/4/24
f 28/160/25 90/161/25 69/159/25 70/3/25
f 15/40/26 95/37/26 66/38/27 89/39/27
f 78/4/28 93/1/28 13/2/28 80/3/28
f 66/159/7 78/3/7 80/160/7 89/161/7
f 102/37/29 77/38/30 88/39/30 32/40/29
f 72/2/31 95/3/31 15/4/31 31/1/31
f 77/159/32 72/3/32 31/160/32 88/161/32
f 102/1/33 32/2/33 12/3/33 92/4/33
f 74/38/34 83/39/35 24/40/36 99/37/36
f 12/159/10 87/3/10 76/160/10 92/161/10
